<mxfile host="app.diagrams.net" agent="Mozilla/5.0 (Macintosh; Intel Mac OS X 10_15_7) AppleWebKit/605.1.15 (KHTML, like Gecko) Version/18.0.1 Safari/605.1.15" version="24.7.17">
  <diagram name="PÃ¡gina-1" id="pNtj-E5VUR7fUzYblgED">
    <mxGraphModel dx="1312" dy="2028" grid="1" gridSize="10" guides="1" tooltips="1" connect="1" arrows="1" fold="1" page="1" pageScale="1" pageWidth="827" pageHeight="1169" math="0" shadow="0">
      <root>
        <mxCell id="0" />
        <mxCell id="1" parent="0" />
        <mxCell id="HkKM0mRaSlbnlG0qgBaK-1" value="Usuario" style="rounded=0;whiteSpace=wrap;html=1;" vertex="1" parent="1">
          <mxGeometry x="110" y="60" width="50" height="20" as="geometry" />
        </mxCell>
        <mxCell id="HkKM0mRaSlbnlG0qgBaK-2" value="Ediciones" style="whiteSpace=wrap;html=1;" vertex="1" parent="1">
          <mxGeometry x="400" y="60" width="70" height="20" as="geometry" />
        </mxCell>
        <mxCell id="HkKM0mRaSlbnlG0qgBaK-3" value="Vender&lt;div&gt;/&lt;/div&gt;&lt;div&gt;Comprar&lt;/div&gt;" style="rhombus;whiteSpace=wrap;html=1;" vertex="1" parent="1">
          <mxGeometry x="240" y="25" width="90" height="90" as="geometry" />
        </mxCell>
        <mxCell id="HkKM0mRaSlbnlG0qgBaK-5" value="Tienen" style="rhombus;whiteSpace=wrap;html=1;" vertex="1" parent="1">
          <mxGeometry x="530" y="110" width="80" height="40" as="geometry" />
        </mxCell>
        <mxCell id="HkKM0mRaSlbnlG0qgBaK-6" value="Discos" style="whiteSpace=wrap;html=1;" vertex="1" parent="1">
          <mxGeometry x="700" y="190" width="60" height="20" as="geometry" />
        </mxCell>
        <mxCell id="HkKM0mRaSlbnlG0qgBaK-8" value="Canciones" style="whiteSpace=wrap;html=1;" vertex="1" parent="1">
          <mxGeometry x="690" y="-10" width="80" height="20" as="geometry" />
        </mxCell>
        <mxCell id="HkKM0mRaSlbnlG0qgBaK-9" value="Agrupan" style="rhombus;whiteSpace=wrap;html=1;" vertex="1" parent="1">
          <mxGeometry x="695" y="80" width="70" height="50" as="geometry" />
        </mxCell>
        <mxCell id="HkKM0mRaSlbnlG0qgBaK-10" value="Grabado" style="rhombus;whiteSpace=wrap;html=1;" vertex="1" parent="1">
          <mxGeometry x="695" y="280" width="70" height="30" as="geometry" />
        </mxCell>
        <mxCell id="HkKM0mRaSlbnlG0qgBaK-11" value="Artistas" style="whiteSpace=wrap;html=1;" vertex="1" parent="1">
          <mxGeometry x="705" y="390" width="50" height="20" as="geometry" />
        </mxCell>
        <mxCell id="HkKM0mRaSlbnlG0qgBaK-12" value="" style="triangle;whiteSpace=wrap;html=1;rotation=90;" vertex="1" parent="1">
          <mxGeometry x="705" y="460" width="50" height="50" as="geometry" />
        </mxCell>
        <mxCell id="HkKM0mRaSlbnlG0qgBaK-13" value="Solistas" style="whiteSpace=wrap;html=1;" vertex="1" parent="1">
          <mxGeometry x="650" y="585" width="55" height="20" as="geometry" />
        </mxCell>
        <mxCell id="HkKM0mRaSlbnlG0qgBaK-14" value="Grupos" style="whiteSpace=wrap;html=1;" vertex="1" parent="1">
          <mxGeometry x="755" y="585" width="45" height="20" as="geometry" />
        </mxCell>
        <mxCell id="HkKM0mRaSlbnlG0qgBaK-15" value="Puede&lt;div&gt;ser&lt;/div&gt;" style="text;html=1;align=center;verticalAlign=middle;resizable=0;points=[];autosize=1;strokeColor=none;fillColor=none;" vertex="1" parent="1">
          <mxGeometry x="700" y="460" width="60" height="40" as="geometry" />
        </mxCell>
        <mxCell id="HkKM0mRaSlbnlG0qgBaK-16" value="" style="endArrow=none;html=1;rounded=0;exitX=0.494;exitY=0.069;exitDx=0;exitDy=0;exitPerimeter=0;" edge="1" parent="1" source="HkKM0mRaSlbnlG0qgBaK-15">
          <mxGeometry width="50" height="50" relative="1" as="geometry">
            <mxPoint x="680" y="460" as="sourcePoint" />
            <mxPoint x="730" y="410" as="targetPoint" />
          </mxGeometry>
        </mxCell>
        <mxCell id="HkKM0mRaSlbnlG0qgBaK-17" value="Tienen" style="rhombus;whiteSpace=wrap;html=1;rotation=0;" vertex="1" parent="1">
          <mxGeometry x="270" y="180" width="60" height="60" as="geometry" />
        </mxCell>
        <mxCell id="HkKM0mRaSlbnlG0qgBaK-18" value="Desean" style="rhombus;whiteSpace=wrap;html=1;" vertex="1" parent="1">
          <mxGeometry x="400" y="290" width="70" height="50" as="geometry" />
        </mxCell>
        <mxCell id="HkKM0mRaSlbnlG0qgBaK-19" value="" style="endArrow=none;html=1;rounded=0;exitX=0;exitY=0.5;exitDx=0;exitDy=0;" edge="1" parent="1" source="HkKM0mRaSlbnlG0qgBaK-18">
          <mxGeometry width="50" height="50" relative="1" as="geometry">
            <mxPoint x="140" y="320" as="sourcePoint" />
            <mxPoint x="140" y="80" as="targetPoint" />
            <Array as="points">
              <mxPoint x="140" y="315" />
            </Array>
          </mxGeometry>
        </mxCell>
        <mxCell id="HkKM0mRaSlbnlG0qgBaK-20" value="" style="endArrow=none;html=1;rounded=0;exitX=1;exitY=0.5;exitDx=0;exitDy=0;entryX=0;entryY=1;entryDx=0;entryDy=0;" edge="1" parent="1" source="HkKM0mRaSlbnlG0qgBaK-18" target="HkKM0mRaSlbnlG0qgBaK-6">
          <mxGeometry width="50" height="50" relative="1" as="geometry">
            <mxPoint x="510" y="320" as="sourcePoint" />
            <mxPoint x="560" y="270" as="targetPoint" />
            <Array as="points">
              <mxPoint x="630" y="270" />
            </Array>
          </mxGeometry>
        </mxCell>
        <mxCell id="HkKM0mRaSlbnlG0qgBaK-21" value="" style="endArrow=none;html=1;rounded=0;entryX=0.75;entryY=1;entryDx=0;entryDy=0;exitX=0;exitY=0.5;exitDx=0;exitDy=0;" edge="1" parent="1" source="HkKM0mRaSlbnlG0qgBaK-17" target="HkKM0mRaSlbnlG0qgBaK-1">
          <mxGeometry width="50" height="50" relative="1" as="geometry">
            <mxPoint x="170" y="210" as="sourcePoint" />
            <mxPoint x="220" y="160" as="targetPoint" />
          </mxGeometry>
        </mxCell>
        <mxCell id="HkKM0mRaSlbnlG0qgBaK-22" value="" style="endArrow=none;html=1;rounded=0;entryX=1;entryY=0.5;entryDx=0;entryDy=0;exitX=0.388;exitY=0.986;exitDx=0;exitDy=0;exitPerimeter=0;" edge="1" parent="1" source="HkKM0mRaSlbnlG0qgBaK-25" target="HkKM0mRaSlbnlG0qgBaK-17">
          <mxGeometry width="50" height="50" relative="1" as="geometry">
            <mxPoint x="462" y="260" as="sourcePoint" />
            <mxPoint x="340" y="130" as="targetPoint" />
          </mxGeometry>
        </mxCell>
        <mxCell id="HkKM0mRaSlbnlG0qgBaK-23" value="" style="endArrow=none;html=1;rounded=0;entryX=0;entryY=0.5;entryDx=0;entryDy=0;" edge="1" parent="1" target="HkKM0mRaSlbnlG0qgBaK-3">
          <mxGeometry width="50" height="50" relative="1" as="geometry">
            <mxPoint x="160" y="70" as="sourcePoint" />
            <mxPoint x="210" y="20" as="targetPoint" />
          </mxGeometry>
        </mxCell>
        <mxCell id="HkKM0mRaSlbnlG0qgBaK-24" value="" style="endArrow=none;html=1;rounded=0;entryX=0.5;entryY=0;entryDx=0;entryDy=0;exitX=0.5;exitY=0;exitDx=0;exitDy=0;" edge="1" parent="1" source="HkKM0mRaSlbnlG0qgBaK-1" target="HkKM0mRaSlbnlG0qgBaK-3">
          <mxGeometry width="50" height="50" relative="1" as="geometry">
            <mxPoint x="150" y="20" as="sourcePoint" />
            <mxPoint x="230" y="20" as="targetPoint" />
            <Array as="points">
              <mxPoint x="135" y="25" />
            </Array>
          </mxGeometry>
        </mxCell>
        <mxCell id="HkKM0mRaSlbnlG0qgBaK-25" value="" style="whiteSpace=wrap;html=1;fillColor=none;" vertex="1" parent="1">
          <mxGeometry x="390" y="50" width="90" height="40" as="geometry" />
        </mxCell>
        <mxCell id="HkKM0mRaSlbnlG0qgBaK-26" value="" style="whiteSpace=wrap;html=1;fillColor=none;" vertex="1" parent="1">
          <mxGeometry x="680" y="-20" width="100" height="40" as="geometry" />
        </mxCell>
        <mxCell id="HkKM0mRaSlbnlG0qgBaK-27" value="" style="endArrow=none;html=1;rounded=0;entryX=0.5;entryY=0;entryDx=0;entryDy=0;" edge="1" parent="1" target="HkKM0mRaSlbnlG0qgBaK-30">
          <mxGeometry width="50" height="50" relative="1" as="geometry">
            <mxPoint x="480" y="70" as="sourcePoint" />
            <mxPoint x="570" y="70" as="targetPoint" />
            <Array as="points">
              <mxPoint x="570" y="70" />
            </Array>
          </mxGeometry>
        </mxCell>
        <mxCell id="HkKM0mRaSlbnlG0qgBaK-28" value="" style="endArrow=none;html=1;rounded=0;entryX=0.566;entryY=0.078;entryDx=0;entryDy=0;entryPerimeter=0;" edge="1" parent="1" target="HkKM0mRaSlbnlG0qgBaK-30">
          <mxGeometry width="50" height="50" relative="1" as="geometry">
            <mxPoint x="480" y="60" as="sourcePoint" />
            <mxPoint x="583" y="110" as="targetPoint" />
            <Array as="points">
              <mxPoint x="578" y="60" />
            </Array>
          </mxGeometry>
        </mxCell>
        <mxCell id="HkKM0mRaSlbnlG0qgBaK-31" style="edgeStyle=orthogonalEdgeStyle;rounded=0;orthogonalLoop=1;jettySize=auto;html=1;exitX=0.5;exitY=1;exitDx=0;exitDy=0;entryX=0;entryY=0.5;entryDx=0;entryDy=0;" edge="1" parent="1" source="HkKM0mRaSlbnlG0qgBaK-30" target="HkKM0mRaSlbnlG0qgBaK-6">
          <mxGeometry relative="1" as="geometry" />
        </mxCell>
        <mxCell id="HkKM0mRaSlbnlG0qgBaK-30" value="" style="rhombus;whiteSpace=wrap;html=1;fillColor=none;" vertex="1" parent="1">
          <mxGeometry x="515" y="100" width="110" height="60" as="geometry" />
        </mxCell>
        <mxCell id="HkKM0mRaSlbnlG0qgBaK-35" style="edgeStyle=orthogonalEdgeStyle;rounded=0;orthogonalLoop=1;jettySize=auto;html=1;exitX=0.5;exitY=1;exitDx=0;exitDy=0;" edge="1" parent="1" source="HkKM0mRaSlbnlG0qgBaK-32" target="HkKM0mRaSlbnlG0qgBaK-6">
          <mxGeometry relative="1" as="geometry" />
        </mxCell>
        <mxCell id="HkKM0mRaSlbnlG0qgBaK-32" value="" style="rhombus;whiteSpace=wrap;html=1;fillColor=none;" vertex="1" parent="1">
          <mxGeometry x="682.5" y="70" width="95" height="70" as="geometry" />
        </mxCell>
        <mxCell id="HkKM0mRaSlbnlG0qgBaK-33" value="" style="endArrow=none;html=1;rounded=0;entryX=0.582;entryY=1.045;entryDx=0;entryDy=0;entryPerimeter=0;exitX=0.577;exitY=0.06;exitDx=0;exitDy=0;exitPerimeter=0;" edge="1" parent="1" source="HkKM0mRaSlbnlG0qgBaK-32" target="HkKM0mRaSlbnlG0qgBaK-26">
          <mxGeometry width="50" height="50" relative="1" as="geometry">
            <mxPoint x="738" y="70" as="sourcePoint" />
            <mxPoint x="740" y="40" as="targetPoint" />
            <Array as="points" />
          </mxGeometry>
        </mxCell>
        <mxCell id="HkKM0mRaSlbnlG0qgBaK-34" value="" style="endArrow=none;html=1;rounded=0;exitX=0.5;exitY=0;exitDx=0;exitDy=0;" edge="1" parent="1" source="HkKM0mRaSlbnlG0qgBaK-32">
          <mxGeometry width="50" height="50" relative="1" as="geometry">
            <mxPoint x="680" y="70" as="sourcePoint" />
            <mxPoint x="730" y="20" as="targetPoint" />
          </mxGeometry>
        </mxCell>
        <mxCell id="HkKM0mRaSlbnlG0qgBaK-36" value="" style="endArrow=none;html=1;rounded=0;exitX=1;exitY=0.5;exitDx=0;exitDy=0;entryX=0;entryY=0.5;entryDx=0;entryDy=0;" edge="1" parent="1" source="HkKM0mRaSlbnlG0qgBaK-3" target="HkKM0mRaSlbnlG0qgBaK-25">
          <mxGeometry width="50" height="50" relative="1" as="geometry">
            <mxPoint x="410" y="250" as="sourcePoint" />
            <mxPoint x="460" y="200" as="targetPoint" />
          </mxGeometry>
        </mxCell>
        <mxCell id="HkKM0mRaSlbnlG0qgBaK-37" value="" style="endArrow=none;html=1;rounded=0;exitX=0.379;exitY=0.067;exitDx=0;exitDy=0;exitPerimeter=0;entryX=0.414;entryY=0.981;entryDx=0;entryDy=0;entryPerimeter=0;" edge="1" parent="1" source="HkKM0mRaSlbnlG0qgBaK-11" target="HkKM0mRaSlbnlG0qgBaK-10">
          <mxGeometry width="50" height="50" relative="1" as="geometry">
            <mxPoint x="720" y="380" as="sourcePoint" />
            <mxPoint x="722" y="320" as="targetPoint" />
          </mxGeometry>
        </mxCell>
        <mxCell id="HkKM0mRaSlbnlG0qgBaK-38" value="" style="endArrow=none;html=1;rounded=0;entryX=0.5;entryY=1;entryDx=0;entryDy=0;exitX=0.5;exitY=0;exitDx=0;exitDy=0;" edge="1" parent="1" source="HkKM0mRaSlbnlG0qgBaK-10" target="HkKM0mRaSlbnlG0qgBaK-6">
          <mxGeometry width="50" height="50" relative="1" as="geometry">
            <mxPoint x="670" y="300" as="sourcePoint" />
            <mxPoint x="720" y="250" as="targetPoint" />
          </mxGeometry>
        </mxCell>
        <mxCell id="HkKM0mRaSlbnlG0qgBaK-39" value="" style="endArrow=none;html=1;rounded=0;entryX=0.606;entryY=0.902;entryDx=0;entryDy=0;entryPerimeter=0;exitX=0.5;exitY=0;exitDx=0;exitDy=0;" edge="1" parent="1" source="HkKM0mRaSlbnlG0qgBaK-14" target="HkKM0mRaSlbnlG0qgBaK-15">
          <mxGeometry width="50" height="50" relative="1" as="geometry">
            <mxPoint x="740" y="550" as="sourcePoint" />
            <mxPoint x="790" y="500" as="targetPoint" />
          </mxGeometry>
        </mxCell>
        <mxCell id="HkKM0mRaSlbnlG0qgBaK-40" value="" style="endArrow=none;html=1;rounded=0;entryX=0.741;entryY=0.678;entryDx=0;entryDy=0;entryPerimeter=0;exitX=0.5;exitY=0;exitDx=0;exitDy=0;" edge="1" parent="1" source="HkKM0mRaSlbnlG0qgBaK-13" target="HkKM0mRaSlbnlG0qgBaK-12">
          <mxGeometry width="50" height="50" relative="1" as="geometry">
            <mxPoint x="680" y="580" as="sourcePoint" />
            <mxPoint x="720" y="500" as="targetPoint" />
          </mxGeometry>
        </mxCell>
        <mxCell id="HkKM0mRaSlbnlG0qgBaK-41" value="" style="endArrow=none;html=1;rounded=0;exitX=0.379;exitY=0.067;exitDx=0;exitDy=0;exitPerimeter=0;entryX=0.414;entryY=0.981;entryDx=0;entryDy=0;entryPerimeter=0;" edge="1" parent="1">
          <mxGeometry width="50" height="50" relative="1" as="geometry">
            <mxPoint x="734" y="390" as="sourcePoint" />
            <mxPoint x="734" y="308" as="targetPoint" />
          </mxGeometry>
        </mxCell>
        <mxCell id="HkKM0mRaSlbnlG0qgBaK-42" value="" style="endArrow=none;html=1;rounded=0;entryX=0;entryY=0;entryDx=0;entryDy=0;exitX=0;exitY=0.5;exitDx=0;exitDy=0;" edge="1" parent="1" source="HkKM0mRaSlbnlG0qgBaK-45" target="HkKM0mRaSlbnlG0qgBaK-1">
          <mxGeometry width="50" height="50" relative="1" as="geometry">
            <mxPoint x="30" y="20" as="sourcePoint" />
            <mxPoint x="90" y="50" as="targetPoint" />
          </mxGeometry>
        </mxCell>
        <mxCell id="HkKM0mRaSlbnlG0qgBaK-43" value="" style="endArrow=none;html=1;rounded=0;exitX=0.25;exitY=0;exitDx=0;exitDy=0;entryX=1;entryY=0.5;entryDx=0;entryDy=0;" edge="1" parent="1" source="HkKM0mRaSlbnlG0qgBaK-1" target="HkKM0mRaSlbnlG0qgBaK-45">
          <mxGeometry width="50" height="50" relative="1" as="geometry">
            <mxPoint x="122.5" y="40" as="sourcePoint" />
            <mxPoint x="120" y="-120" as="targetPoint" />
            <Array as="points">
              <mxPoint x="120" y="-60" />
            </Array>
          </mxGeometry>
        </mxCell>
        <mxCell id="HkKM0mRaSlbnlG0qgBaK-45" value="Evaluan" style="rhombus;whiteSpace=wrap;html=1;rotation=-45;" vertex="1" parent="1">
          <mxGeometry x="20" y="-70" width="80" height="80" as="geometry" />
        </mxCell>
        <mxCell id="HkKM0mRaSlbnlG0qgBaK-49" value="" style="endArrow=none;html=1;rounded=0;" edge="1" parent="1">
          <mxGeometry width="50" height="50" relative="1" as="geometry">
            <mxPoint x="650" y="510" as="sourcePoint" />
            <mxPoint x="810" y="510" as="targetPoint" />
            <Array as="points">
              <mxPoint x="680" y="530" />
              <mxPoint x="710" y="530" />
              <mxPoint x="750" y="530" />
              <mxPoint x="770" y="530" />
              <mxPoint x="790" y="520" />
            </Array>
          </mxGeometry>
        </mxCell>
      </root>
    </mxGraphModel>
  </diagram>
</mxfile>
